# xmcd CD database file
#
# Track frame offsets:
#	150
#	13865
#	24700
#	36532
#	53210
#	65840
#	78770
#	90725
#	116425
#	129567
#	140682
#	152567
#	162965
#	173977
#	186632
#	197837
#	209855
#	220397
#	231965
#	241910
#
# Disc length: 3369 seconds
#
# Revision: 0
# Processed by: cddbd v1.5.2PL0 Copyright (c) Steve Scherf et al.
# Submitted via: CDex 1.50beta10
#
DISCID=320d2714
DTITLE=Various Artist - THE BEST OF COUNTRY and WESTERN
DYEAR=2002
DGENRE=Country
TTITLE0=TENNESEE WALTZ
TTITLE1=BOUQUET OF ROSES
TTITLE2=I LOVE YOU BECAUSE
TTITLE3=I REALLY DON'T WANT TO KNOW
TTITLE4=I'M MOVIN' ON
TTITLE5=HAVE I TOLD YOU LATELY THAT I LOVE YOU
TTITLE6=MOLLY DARLING
TTITLE7=JIMMY RODGERS BLUES
TTITLE8=IN THE JAILHOOUSE NOW, NO.2
TTITLE9=TREASURES UNTOLD
TTITLE10=ICAN'T STOP LOVING YOU
TTITLE11=POP A TOP
TTITLE12=I KNOW ONE
TTITLE13=LET'S GO ALL THE WAY
TTITLE14=WHISKEY RIVER
TTITLE15=UNDER YOUR SPELL AGAIN
TTITLE16=ONCE A DAY
TTITLE17=HERE COMES MY BABY
TTITLE18=MAKING MY PLANS
TTITLE19=GREEN,GREEN GLASS OF HOME
EXTD=YEAR: 2002
EXTT0=
EXTT1=
EXTT2=
EXTT3=
EXTT4=
EXTT5=
EXTT6=
EXTT7=
EXTT8=
EXTT9=
EXTT10=
EXTT11=
EXTT12=
EXTT13=
EXTT14=
EXTT15=
EXTT16=
EXTT17=
EXTT18=
EXTT19=
PLAYORDER=
